HIERARCHY
ROOT pelvis
{
  OFFSET 0 100 0
  CHANNELS 6 Xposition Yposition Zposition Zrotation Xrotation Yrotation
  JOINT pelvis_right_femur
  {
    OFFSET -10.78128 -3.44521 -0.5502486
    CHANNELS 3 Zrotation Xrotation Yrotation
    JOINT right_femur_tibia
    {
      OFFSET -0.8047443 -44.0398 -0.1307829
      CHANNELS 3 Zrotation Xrotation Yrotation
      JOINT right_tibia_foot
      {
        OFFSET 3.006224 -47.83518 -5
        CHANNELS 3 Zrotation Xrotation Yrotation
        End Site
        {
          OFFSET 0 -5 15
        }
      }
    }
  }
  JOINT pelvis_left_femur
  {
    OFFSET 10.78128 -3.44521 -0.5502486
    CHANNELS 3 Zrotation Xrotation Yrotation
    JOINT left_femur_tibia
    {
      OFFSET 0.8047443 -44.0398 -0.1307829
      CHANNELS 3 Zrotation Xrotation Yrotation
      JOINT left_tibia_foot
      {
        OFFSET -4.370144 -48.10324 -4.275266
        CHANNELS 3 Zrotation Xrotation Yrotation
        End Site
        {
          OFFSET 0 -5 15
        }
      }
    }
  }
  JOINT pelvis_spine1
  {
    OFFSET 0 6.468898 -3.129235
    CHANNELS 3 Zrotation Xrotation Yrotation
    JOINT spine1
    {
      OFFSET 0 23.15396 4.99043
      CHANNELS 3 Zrotation Xrotation Yrotation
      JOINT spine2
      {
        OFFSET 0 20.79997 -5.064912
        CHANNELS 3 Zrotation Xrotation Yrotation
        JOINT neck
        {
          OFFSET 0 14.38658 9.616178
          CHANNELS 3 Zrotation Xrotation Yrotation
          End Site
          {
            OFFSET 0 20 0
          }
        }
      }
      JOINT right_manubrium
      {
        OFFSET -5.722621 16.35077 3.967754
        CHANNELS 3 Zrotation Xrotation Yrotation
        JOINT right_clavicle
        {
          OFFSET -13.16364 1.694482 -4.693211
          CHANNELS 3 Zrotation Xrotation Yrotation
          JOINT right_humerus
          {
            OFFSET -28.5034 -0.3100689 -2.792744
            CHANNELS 3 Zrotation Xrotation Yrotation
            JOINT right_radius
            {
              OFFSET -25.15693 0.02248979 -1.271978
              CHANNELS 3 Zrotation Xrotation Yrotation
              End Site
              {
                OFFSET -15 0 0
              }
            }
          }
        }
      }
      JOINT left_manubrium
      {
        OFFSET 5.722621 16.35077 3.967754
        CHANNELS 3 Zrotation Xrotation Yrotation
        JOINT left_clavicle
        {
          OFFSET 13.16364 1.694482 -4.693211
          CHANNELS 3 Zrotation Xrotation Yrotation
          JOINT left_humerus
          {
            OFFSET 29.39168 -1.063119 -2.237045
            CHANNELS 3 Zrotation Xrotation Yrotation
            JOINT left_radius
            {
              OFFSET 24.59957 -0.9528479 0.9047498
              CHANNELS 3 Zrotation Xrotation Yrotation
              End Site
              {
                OFFSET 15 -0 -0
              }
            }
          }
        }
      }
    }
  }
}
MOTION
Frames: 23
Frame Time: 0.0416666666667
-1731.35 117.5692 -76.00372 5.864448 7.887813 153.2616 6.050657 17.86502 0.931333 -0 15.99714 -0 -8.447385 -13.05636 -2.566943 3.853386 -16.11927 -4.013716 -0 4.572287 -0 0.7681972 -3.897516 16.22637 1.88903 -2.84733 7.09384 0.4515099 14.71199 -5.421072 1.987042 19.63339 0.8261159 -2.143559 -21.62767 5.764102 -5.122574 -32.68177 11.11257 90.82425 13.71171 -7.40909 -0 0 29.84641 -23.56568 14.97655 15.88516 2.225181 -19.29337 -5.122722 -94.36054 12.25412 35.68482 0 0 -5.153719 5.466818 13.19188 4.411214
-1729.559 117.541 -82.1792 5.921795 7.84497 152.8425 6.050657 17.86502 0.931333 -0 15.99714 -0 -8.447385 -13.05636 -2.566943 3.853386 -16.11927 -4.013716 -0 4.572287 -0 0.7681972 -3.897516 16.22637 1.88903 -2.84733 7.09384 0.4515099 14.71199 -5.421072 1.987042 19.63339 0.8261159 -2.143559 -21.62767 5.764102 -5.122574 -32.68177 11.11257 90.82425 13.71171 -7.40909 -0 0 29.84641 -23.56568 14.97655 15.88516 2.225181 -19.29337 -5.122722 -94.36054 12.25412 35.68482 0 0 -5.153719 5.466818 13.19188 4.411214
-1727.722 117.5128 -88.34147 5.978819 7.801713 152.4236 6.050657 17.86502 0.931333 -0 15.99714 -0 -8.447385 -13.05636 -2.566943 3.853386 -16.11927 -4.013716 -0 4.572287 -0 0.7681972 -3.897516 16.22637 1.88903 -2.84733 7.09384 0.4515099 14.71199 -5.421072 1.987042 19.63339 0.8261159 -2.143559 -21.62767 5.764102 -5.122574 -32.68177 11.11257 90.82425 13.71171 -7.40909 -0 0 29.84641 -23.56568 14.97655 15.88516 2.225181 -19.29337 -5.122722 -94.36054 12.25412 35.68482 0 0 -5.153719 5.466818 13.19188 4.411214
-1725.841 117.4846 -94.4902 6.035516 7.758044 152.0048 6.050657 17.86502 0.931333 -0 15.99714 -0 -8.447385 -13.05636 -2.566943 3.853386 -16.11927 -4.013716 -0 4.572287 -0 0.7681972 -3.897516 16.22637 1.88903 -2.84733 7.09384 0.4515099 14.71199 -5.421072 1.987042 19.63339 0.8261159 -2.143559 -21.62767 5.764102 -5.122574 -32.68177 11.11257 90.82425 13.71171 -7.40909 -0 0 29.84641 -23.56568 14.97655 15.88516 2.225181 -19.29337 -5.122722 -94.36054 12.25412 35.68482 0 0 -5.153719 5.466818 13.19188 4.411214
-1723.916 117.4565 -100.6251 6.091883 7.713966 151.586 6.050657 17.86502 0.931333 -0 15.99714 -0 -8.447385 -13.05636 -2.566943 3.853386 -16.11927 -4.013716 -0 4.572287 -0 0.7681972 -3.897516 16.22637 1.88903 -2.84733 7.09384 0.4515099 14.71199 -5.421072 1.987042 19.63339 0.8261159 -2.143559 -21.62767 5.764102 -5.122574 -32.68177 11.11257 90.82425 13.71171 -7.40909 -0 0 29.84641 -23.56568 14.97655 15.88516 2.225181 -19.29337 -5.122722 -94.36054 12.25412 35.68482 0 0 -5.153719 5.466818 13.19188 4.411214
-1721.945 117.4283 -106.7458 6.147918 7.669481 151.1674 6.050657 17.86502 0.931333 -0 15.99714 -0 -8.447385 -13.05636 -2.566943 3.853386 -16.11927 -4.013716 -0 4.572287 -0 0.7681972 -3.897516 16.22637 1.88903 -2.84733 7.09384 0.4515099 14.71199 -5.421072 1.987042 19.63339 0.8261159 -2.143559 -21.62767 5.764102 -5.122574 -32.68177 11.11257 90.82425 13.71171 -7.40909 -0 0 29.84641 -23.56568 14.97655 15.88516 2.225181 -19.29337 -5.122722 -94.36054 12.25412 35.68482 0 0 -5.153719 5.466818 13.19188 4.411214
-1719.931 117.4001 -112.8519 6.203617 7.624591 150.7488 6.050657 17.86502 0.931333 -0 15.99714 -0 -8.447385 -13.05636 -2.566943 3.853386 -16.11927 -4.013716 -0 4.572287 -0 0.7681972 -3.897516 16.22637 1.88903 -2.84733 7.09384 0.4515099 14.71199 -5.421072 1.987042 19.63339 0.8261159 -2.143559 -21.62767 5.764102 -5.122574 -32.68177 11.11257 90.82425 13.71171 -7.40909 -0 0 29.84641 -23.56568 14.97655 15.88516 2.225181 -19.29337 -5.122722 -94.36054 12.25412 35.68482 0 0 -5.153719 5.466818 13.19188 4.411214
-1717.871 117.372 -118.9433 6.258979 7.5793 150.3303 6.050657 17.86502 0.931333 -0 15.99714 -0 -8.447385 -13.05636 -2.566943 3.853386 -16.11927 -4.013716 -0 4.572287 -0 0.7681972 -3.897516 16.22637 1.88903 -2.84733 7.09384 0.4515099 14.71199 -5.421072 1.987042 19.63339 0.8261159 -2.143559 -21.62767 5.764102 -5.122574 -32.68177 11.11257 90.82425 13.71171 -7.40909 -0 0 29.84641 -23.56568 14.97655 15.88516 2.225181 -19.29337 -5.122722 -94.36054 12.25412 35.68482 0 0 -5.153719 5.466818 13.19188 4.411214
-1715.768 117.3438 -125.0195 6.313999 7.533608 149.9119 6.050657 17.86502 0.931333 -0 15.99714 -0 -8.447385 -13.05636 -2.566943 3.853386 -16.11927 -4.013716 -0 4.572287 -0 0.7681972 -3.897516 16.22637 1.88903 -2.84733 7.09384 0.4515099 14.71199 -5.421072 1.987042 19.63339 0.8261159 -2.143559 -21.62767 5.764102 -5.122574 -32.68177 11.11257 90.82425 13.71171 -7.40909 -0 0 29.84641 -23.56568 14.97655 15.88516 2.225181 -19.29337 -5.122722 -94.36054 12.25412 35.68482 0 0 -5.153719 5.466818 13.19188 4.411214
-1713.62 117.3156 -131.0802 6.368676 7.48752 149.4936 6.050657 17.86502 0.931333 -0 15.99714 -0 -8.447385 -13.05636 -2.566943 3.853386 -16.11927 -4.013716 -0 4.572287 -0 0.7681972 -3.897516 16.22637 1.88903 -2.84733 7.09384 0.4515099 14.71199 -5.421072 1.987042 19.63339 0.8261159 -2.143559 -21.62767 5.764102 -5.122574 -32.68177 11.11257 90.82425 13.71171 -7.40909 -0 0 29.84641 -23.56568 14.97655 15.88516 2.225181 -19.29337 -5.122722 -94.36054 12.25412 35.68482 0 0 -5.153719 5.466818 13.19188 4.411214
-1711.428 117.2874 -137.1251 6.423006 7.441037 149.0754 6.050657 17.86502 0.931333 -0 15.99714 -0 -8.447385 -13.05636 -2.566943 3.853386 -16.11927 -4.013716 -0 4.572287 -0 0.7681972 -3.897516 16.22637 1.88903 -2.84733 7.09384 0.4515099 14.71199 -5.421072 1.987042 19.63339 0.8261159 -2.143559 -21.62767 5.764102 -5.122574 -32.68177 11.11257 90.82425 13.71171 -7.40909 -0 0 29.84641 -23.56568 14.97655 15.88516 2.225181 -19.29337 -5.122722 -94.36054 12.25412 35.68482 0 0 -5.153719 5.466818 13.19188 4.411214
-1709.192 117.2593 -143.1538 6.476986 7.394163 148.6573 6.050657 17.86502 0.931333 -0 15.99714 -0 -8.447385 -13.05636 -2.566943 3.853386 -16.11927 -4.013716 -0 4.572287 -0 0.7681972 -3.897516 16.22637 1.88903 -2.84733 7.09384 0.4515099 14.71199 -5.421072 1.987042 19.63339 0.8261159 -2.143559 -21.62767 5.764102 -5.122574 -32.68177 11.11257 90.82425 13.71171 -7.40909 -0 0 29.84641 -23.56568 14.97655 15.88516 2.225181 -19.29337 -5.122722 -94.36054 12.25412 35.68482 0 0 -5.153719 5.466818 13.19188 4.411214
-1706.913 117.2311 -149.1662 6.530615 7.346898 148.2392 6.050657 17.86502 0.931333 -0 15.99714 -0 -8.447385 -13.05636 -2.566943 3.853386 -16.11927 -4.013716 -0 4.572287 -0 0.7681972 -3.897516 16.22637 1.88903 -2.84733 7.09384 0.4515099 14.71199 -5.421072 1.987042 19.63339 0.8261159 -2.143559 -21.62767 5.764102 -5.122574 -32.68177 11.11257 90.82425 13.71171 -7.40909 -0 0 29.84641 -23.56568 14.97655 15.88516 2.225181 -19.29337 -5.122722 -94.36054 12.25412 35.68482 0 0 -5.153719 5.466818 13.19188 4.411214
-1704.589 117.2029 -155.1617 6.583889 7.299248 147.8213 6.050657 17.86502 0.931333 -0 15.99714 -0 -8.447385 -13.05636 -2.566943 3.853386 -16.11927 -4.013716 -0 4.572287 -0 0.7681972 -3.897516 16.22637 1.88903 -2.84733 7.09384 0.4515099 14.71199 -5.421072 1.987042 19.63339 0.8261159 -2.143559 -21.62767 5.764102 -5.122574 -32.68177 11.11257 90.82425 13.71171 -7.40909 -0 0 29.84641 -23.56568 14.97655 15.88516 2.225181 -19.29337 -5.122722 -94.36054 12.25412 35.68482 0 0 -5.153719 5.466818 13.19188 4.411214
-1702.222 117.1748 -161.1402 6.636805 7.251213 147.4034 6.050657 17.86502 0.931333 -0 15.99714 -0 -8.447385 -13.05636 -2.566943 3.853386 -16.11927 -4.013716 -0 4.572287 -0 0.7681972 -3.897516 16.22637 1.88903 -2.84733 7.09384 0.4515099 14.71199 -5.421072 1.987042 19.63339 0.8261159 -2.143559 -21.62767 5.764102 -5.122574 -32.68177 11.11257 90.82425 13.71171 -7.40909 -0 0 29.84641 -23.56568 14.97655 15.88516 2.225181 -19.29337 -5.122722 -94.36054 12.25412 35.68482 0 0 -5.153719 5.466818 13.19188 4.411214
-1699.812 117.1466 -167.1013 6.689361 7.202796 146.9857 6.050657 17.86502 0.931333 -0 15.99714 -0 -8.447385 -13.05636 -2.566943 3.853386 -16.11927 -4.013716 -0 4.572287 -0 0.7681972 -3.897516 16.22637 1.88903 -2.84733 7.09384 0.4515099 14.71199 -5.421072 1.987042 19.63339 0.8261159 -2.143559 -21.62767 5.764102 -5.122574 -32.68177 11.11257 90.82425 13.71171 -7.40909 -0 0 29.84641 -23.56568 14.97655 15.88516 2.225181 -19.29337 -5.122722 -94.36054 12.25412 35.68482 0 0 -5.153719 5.466818 13.19188 4.411214
-1697.358 117.1184 -173.0447 6.741555 7.154001 146.568 6.050657 17.86502 0.931333 -0 15.99714 -0 -8.447385 -13.05636 -2.566943 3.853386 -16.11927 -4.013716 -0 4.572287 -0 0.7681972 -3.897516 16.22637 1.88903 -2.84733 7.09384 0.4515099 14.71199 -5.421072 1.987042 19.63339 0.8261159 -2.143559 -21.62767 5.764102 -5.122574 -32.68177 11.11257 90.82425 13.71171 -7.40909 -0 0 29.84641 -23.56568 14.97655 15.88516 2.225181 -19.29337 -5.122722 -94.36054 12.25412 35.68482 0 0 -5.153719 5.466818 13.19188 4.411214
-1694.861 117.0902 -178.9701 6.793383 7.10483 146.1504 6.050657 17.86502 0.931333 -0 15.99714 -0 -8.447385 -13.05636 -2.566943 3.853386 -16.11927 -4.013716 -0 4.572287 -0 0.7681972 -3.897516 16.22637 1.88903 -2.84733 7.09384 0.4515099 14.71199 -5.421072 1.987042 19.63339 0.8261159 -2.143559 -21.62767 5.764102 -5.122574 -32.68177 11.11257 90.82425 13.71171 -7.40909 -0 0 29.84641 -23.56568 14.97655 15.88516 2.225181 -19.29337 -5.122722 -94.36054 12.25412 35.68482 0 0 -5.153719 5.466818 13.19188 4.411214
-1692.321 117.0621 -184.8771 6.844842 7.055285 145.7329 6.050657 17.86502 0.931333 -0 15.99714 -0 -8.447385 -13.05636 -2.566943 3.853386 -16.11927 -4.013716 -0 4.572287 -0 0.7681972 -3.897516 16.22637 1.88903 -2.84733 7.09384 0.4515099 14.71199 -5.421072 1.987042 19.63339 0.8261159 -2.143559 -21.62767 5.764102 -5.122574 -32.68177 11.11257 90.82425 13.71171 -7.40909 -0 0 29.84641 -23.56568 14.97655 15.88516 2.225181 -19.29337 -5.122722 -94.36054 12.25412 35.68482 0 0 -5.153719 5.466818 13.19188 4.411214
-1689.738 117.0339 -190.7654 6.895932 7.005369 145.3155 6.050657 17.86502 0.931333 -0 15.99714 -0 -8.447385 -13.05636 -2.566943 3.853386 -16.11927 -4.013716 -0 4.572287 -0 0.7681972 -3.897516 16.22637 1.88903 -2.84733 7.09384 0.4515099 14.71199 -5.421072 1.987042 19.63339 0.8261159 -2.143559 -21.62767 5.764102 -5.122574 -32.68177 11.11257 90.82425 13.71171 -7.40909 -0 0 29.84641 -23.56568 14.97655 15.88516 2.225181 -19.29337 -5.122722 -94.36054 12.25412 35.68482 0 0 -5.153719 5.466818 13.19188 4.411214
-1687.112 117.0057 -196.6348 6.946648 6.955085 144.8982 6.050657 17.86502 0.931333 -0 15.99714 -0 -8.447385 -13.05636 -2.566943 3.853386 -16.11927 -4.013716 -0 4.572287 -0 0.7681972 -3.897516 16.22637 1.88903 -2.84733 7.09384 0.4515099 14.71199 -5.421072 1.987042 19.63339 0.8261159 -2.143559 -21.62767 5.764102 -5.122574 -32.68177 11.11257 90.82425 13.71171 -7.40909 -0 0 29.84641 -23.56568 14.97655 15.88516 2.225181 -19.29337 -5.122722 -94.36054 12.25412 35.68482 0 0 -5.153719 5.466818 13.19188 4.411214
-1684.443 116.9776 -202.4849 6.996988 6.904436 144.4809 6.050657 17.86502 0.931333 -0 15.99714 -0 -8.447385 -13.05636 -2.566943 3.853386 -16.11927 -4.013716 -0 4.572287 -0 0.7681972 -3.897516 16.22637 1.88903 -2.84733 7.09384 0.4515099 14.71199 -5.421072 1.987042 19.63339 0.8261159 -2.143559 -21.62767 5.764102 -5.122574 -32.68177 11.11257 90.82425 13.71171 -7.40909 -0 0 29.84641 -23.56568 14.97655 15.88516 2.225181 -19.29337 -5.122722 -94.36054 12.25412 35.68482 0 0 -5.153719 5.466818 13.19188 4.411214
-1681.732 116.9494 -208.3155 7.04695 6.853425 144.0638 6.050657 17.86502 0.931333 -0 15.99714 -0 -8.447385 -13.05636 -2.566943 3.853386 -16.11927 -4.013716 -0 4.572287 -0 0.7681972 -3.897516 16.22637 1.88903 -2.84733 7.09384 0.4515099 14.71199 -5.421072 1.987042 19.63339 0.8261159 -2.143559 -21.62767 5.764102 -5.122574 -32.68177 11.11257 90.82425 13.71171 -7.40909 -0 0 29.84641 -23.56568 14.97655 15.88516 2.225181 -19.29337 -5.122722 -94.36054 12.25412 35.68482 0 0 -5.153719 5.466818 13.19188 4.411214
